<?xml version="1.0" encoding="utf-8"?>
<svg viewBox="0 0 1100 1100" xmlns="http://www.w3.org/2000/svg">
  <defs>
    <clipPath id="shape">
      <path fill="currentColor" d="M952.5,647Q905,794,780,885Q655,976,500,976Q345,976,220,885Q95,794,47.5,647Q0,500,47.5,353Q95,206,220,115Q345,24,500,24Q655,24,780,115Q905,206,952.5,353Q1000,500,952.5,647Z"/>
    </clipPath>
    <linearGradient id="gradient-1" gradientTransform="rotate(-45 0.5 0.5)">
      <stop offset="0" stop-color="#B398FA"/>
      <stop offset="1" stop-color="#F563FC"/>
    </linearGradient>
  </defs>
  <ellipse style="fill-rule: nonzero; paint-order: stroke; fill: rgba(0, 0, 0, 0); stroke-width: 4px; stroke-linejoin: round; stroke: rgb(255, 255, 255);" cx="550" cy="550" rx="489.95" ry="489.95"/>
  <ellipse style="fill-rule: nonzero; paint-order: stroke; fill: rgba(0, 0, 0, 0); stroke-width: 4px; stroke-linejoin: round; stroke: rgb(255, 255, 255);" cx="550" cy="550" rx="506.304" ry="506.304"/>
  <ellipse style="fill-rule: nonzero; paint-order: stroke; fill: rgba(0, 0, 0, 0); stroke-width: 4px; stroke-linejoin: round; stroke: rgb(255, 255, 255);" cx="550" cy="550" rx="522.658" ry="522.658"/>
  <g clip-path="url(#shape)" transform="matrix(1, 0, 0, 1, 50.000008, 50.000001)" style="filter: blur(4px);">
    <path fill="url(#gradient-1)" d="M952.5,647Q905,794,780,885Q655,976,500,976Q345,976,220,885Q95,794,47.5,647Q0,500,47.5,353Q95,206,220,115Q345,24,500,24Q655,24,780,115Q905,206,952.5,353Q1000,500,952.5,647Z"/>
  </g>
</svg>