<?xml version="1.0" encoding="utf-8"?>
<svg viewBox="0 0 500 300" xmlns="http://www.w3.org/2000/svg">
  <g transform="matrix(0.1, 0, 0, -0.1, -67.60392, 520.00531)" fill="#000000" stroke="none">
    <g transform="matrix(1, 0, 0, 1, -1046.077227, 498.823957)" fill="#000000" stroke="none">
      <path d="M 2280.839 3341.389 C 2495.784 2731.411 2677.81 2220.192 2685.555 2208.574 C 2697.173 2191.145 2757.203 2183.4 2875.325 2183.4 L 3049.605 2183.4 L 3074.778 2247.303 C 3090.27 2280.222 3198.71 2622.971 3318.769 3006.385 C 3438.828 3389.8 3543.397 3715.12 3549.205 3728.675 C 3556.951 3742.23 3671.2 3411.1 3802.878 2992.83 C 3934.557 2574.56 4050.742 2220.192 4060.425 2208.574 C 4072.044 2191.145 4135.945 2183.4 4252.132 2183.4 L 4424.474 2183.4 L 4451.585 2247.303 C 4467.076 2284.095 4645.227 2785.632 4846.618 3362.689 C 5049.942 3939.747 5220.349 4421.92 5226.158 4431.602 C 5233.904 4441.284 5125.464 4449.03 4958.93 4449.03 L 4678.146 4449.03 L 4654.911 4387.064 C 4643.292 4352.208 4552.279 4086.916 4451.585 3800.324 C 4352.826 3511.796 4259.877 3250.377 4248.258 3219.394 C 4226.957 3165.173 4211.465 3203.902 4027.504 3800.324 L 3831.924 4439.348 L 3560.823 4439.348 L 3289.723 4439.348 L 3101.888 3839.052 C 2999.257 3509.858 2910.181 3221.329 2902.435 3200.028 C 2894.689 3172.919 2852.088 3273.613 2766.885 3519.541 C 2697.173 3717.057 2596.479 4005.587 2542.258 4164.374 L 2443.5 4449.03 L 2166.59 4449.03 L 1891.616 4449.03 L 2280.839 3341.389 Z" style="fill: rgb(183, 33, 255);"/>
      <path d="M 5342.344 4416.109 C 5324.917 4373.509 4906.647 3165.173 4906.647 3159.364 C 4906.647 3155.492 5117.719 3151.618 5377.2 3147.746 C 5781.916 3141.936 5853.564 3138.062 5907.783 3107.08 C 6016.224 3048.987 6070.445 2876.644 6029.779 2727.538 C 6004.605 2630.717 5896.165 2504.848 5795.471 2452.564 C 5582.463 2344.123 5226.158 2483.548 5183.557 2688.81 L 5173.874 2744.967 L 4966.676 2744.967 L 4761.414 2744.967 L 4726.558 2653.954 L 4693.638 2561.005 L 4761.414 2421.582 C 4916.329 2107.879 5249.395 1935.536 5673.475 1954.901 C 5849.691 1962.647 5884.547 1970.392 6012.351 2032.358 C 6091.745 2071.087 6194.377 2134.989 6240.851 2175.654 C 6409.321 2322.823 6552.617 2615.226 6552.617 2812.742 C 6552.617 2936.674 6498.396 3147.746 6440.304 3254.249 C 6357.037 3409.164 6190.503 3533.096 5981.368 3596.998 C 5938.767 3610.554 5747.059 3626.045 5555.352 3633.79 L 5206.793 3645.409 L 5200.985 3722.866 C 5197.112 3765.468 5199.048 3846.798 5206.793 3902.955 L 5218.412 4003.649 L 5760.615 4003.649 L 6300.88 4003.649 L 6300.88 4226.34 L 6300.88 4449.03 L 5828.39 4449.03 C 5396.565 4449.03 5355.9 4445.158 5342.344 4416.109 Z" style="fill: rgb(183, 33, 255);"/>
    </g>
  </g>
</svg>